<?xml version="1.0" encoding="UTF-8" standalone="no"?>
<!DOCTYPE svg PUBLIC "-//W3C//DTD SVG 1.1//EN" "http://www.w3.org/Graphics/SVG/1.1/DTD/svg11.dtd">
<svg width="100%" height="100%" viewBox="0 0 2834 1049" version="1.1" xmlns="http://www.w3.org/2000/svg" xmlns:xlink="http://www.w3.org/1999/xlink" xml:space="preserve" xmlns:serif="http://www.serif.com/" style="fill-rule:evenodd;clip-rule:evenodd;stroke-linejoin:round;stroke-miterlimit:2;">
    <g id="Mode-Isolation" serif:id="Mode Isolation" transform="matrix(4.16667,0,0,4.16667,0,0)">
        <g transform="matrix(1,0,0,1,227.957,100.377)">
            <path d="M0,-29.356L0,15.252L-9.676,15.252L-9.676,-44.608L2.214,-44.608L28.208,-0.984L30.75,4.51L30.422,-1.394L30.422,-44.608L40.098,-44.608L40.098,15.252L28.946,15.252L2.05,-30.094L-0.574,-35.014L0,-29.356Z" style="fill:rgb(35,31,32);fill-rule:nonzero;"/>
        </g>
        <g transform="matrix(1,0,0,1,296.016,76.2693)">
            <path d="M0,32.718C2.022,32.718 3.908,32.308 5.658,31.488C7.407,30.668 8.924,29.575 10.209,28.208C11.493,26.843 12.505,25.243 13.243,23.411C13.981,21.58 14.35,19.708 14.35,17.794L14.35,14.514C13.639,15.444 12.477,16.236 10.865,16.892C9.252,17.548 6.942,18.204 3.936,18.86C-0.164,19.735 -3.212,20.733 -5.207,21.853C-7.203,22.974 -8.2,24.71 -8.2,27.06C-8.2,28.864 -7.503,30.258 -6.109,31.242C-4.715,32.226 -2.679,32.718 0,32.718M-3.772,40.18C-8.364,40.18 -11.918,39.142 -14.432,37.064C-16.947,34.987 -18.204,32.199 -18.204,28.7C-18.204,26.076 -17.671,23.944 -16.605,22.304C-15.539,20.664 -14.132,19.298 -12.382,18.204C-10.742,17.166 -8.747,16.305 -6.396,15.621C-4.046,14.938 -0.902,14.186 3.034,13.366C7.134,12.492 9.99,11.603 11.603,10.701C13.215,9.799 14.022,8.501 14.022,6.806C14.022,5.112 13.311,3.622 11.89,2.337C10.468,1.053 8.036,0.41 4.592,0.41C1.257,0.41 -1.449,1.23 -3.526,2.87C-5.604,4.51 -7.162,6.806 -8.2,9.758L-17.138,6.888C-15.225,2.132 -12.328,-1.448 -8.446,-3.854C-4.565,-6.259 -0.082,-7.462 5.002,-7.462C10.687,-7.462 15.197,-6.068 18.532,-3.28C21.866,-0.492 23.534,3.581 23.534,8.938L23.534,26.322C23.534,28.673 23.916,30.272 24.682,31.119C25.447,31.968 26.595,32.39 28.126,32.39C28.727,32.39 29.301,32.336 29.848,32.226C30.394,32.117 30.914,31.953 31.406,31.734L31.406,38.376C30.64,38.814 29.656,39.21 28.454,39.565C27.251,39.92 25.939,40.098 24.518,40.098C20.855,40.098 18.204,39.169 16.564,37.31C14.924,35.452 14.104,32.445 14.104,28.29C12.682,32.008 10.373,34.919 7.175,37.023C3.977,39.128 0.328,40.18 -3.772,40.18" style="fill:rgb(35,31,32);fill-rule:nonzero;"/>
        </g>
        <g transform="matrix(1,0,0,1,334.391,68.8074)">
            <path d="M0,46.822L0,0.902L9.922,0.902L9.922,11.808C11.451,7.872 13.611,4.92 16.4,2.952C19.187,0.984 22.469,0 26.24,0C31.541,0 35.67,1.736 38.623,5.207C41.574,8.679 43.051,13.202 43.051,18.778L43.051,46.822L33.047,46.822L33.047,21.32C33.047,17.384 32.213,14.227 30.545,11.849C28.877,9.471 26.021,8.282 21.977,8.282C18.312,8.282 15.389,9.676 13.201,12.464C11.016,15.252 9.922,19.161 9.922,24.19L9.922,46.822L0,46.822Z" style="fill:rgb(35,31,32);fill-rule:nonzero;"/>
        </g>
        <g transform="matrix(1,0,0,1,416.228,62.2473)">
            <path d="M0,44.362L0,52.398C-1.203,52.945 -2.475,53.382 -3.813,53.71C-5.153,54.038 -6.671,54.202 -8.364,54.202C-13.284,54.202 -16.839,52.904 -19.024,50.307C-21.212,47.711 -22.305,43.87 -22.305,38.786L-22.305,15.662L-32.801,15.662L-32.801,7.462L-22.223,7.462L-22.223,-4.264L-12.956,-9.84L-12.956,7.462L0,7.462L0,15.662L-12.956,15.662L-12.956,37.638C-12.956,40.59 -12.369,42.668 -11.193,43.87C-10.019,45.073 -8.311,45.674 -6.068,45.674C-4.866,45.674 -3.813,45.565 -2.911,45.346C-2.01,45.128 -1.039,44.8 0,44.362" style="fill:rgb(35,31,32);fill-rule:nonzero;"/>
        </g>
        <g transform="matrix(1,0,0,1,444.846,108.249)">
            <path d="M0,-31.242C-3.882,-31.242 -6.998,-30.162 -9.348,-28.003C-11.698,-25.843 -13.147,-22.878 -13.693,-19.106L12.301,-19.106C12.081,-22.604 11.001,-25.502 9.062,-27.798C7.12,-30.094 4.101,-31.242 0,-31.242M20.91,-2.788C18.996,0.328 16.372,2.939 13.038,5.043C9.703,7.148 5.494,8.2 0.41,8.2C-3.525,8.2 -6.998,7.598 -10.004,6.396C-13.011,5.194 -15.498,3.554 -17.466,1.476C-19.434,-0.601 -20.924,-3.088 -21.935,-5.986C-22.947,-8.883 -23.451,-11.999 -23.451,-15.334C-23.451,-18.559 -22.906,-21.648 -21.812,-24.6C-20.719,-27.552 -19.175,-30.121 -17.179,-32.308C-15.184,-34.494 -12.724,-36.23 -9.799,-37.515C-6.875,-38.799 -3.581,-39.442 0.082,-39.442C3.799,-39.442 7.038,-38.813 9.8,-37.556C12.56,-36.298 14.843,-34.631 16.646,-32.554C18.45,-30.476 19.804,-28.03 20.705,-25.215C21.607,-22.399 22.059,-19.434 22.059,-16.318L22.059,-12.874L-13.775,-12.874C-13.394,-8.938 -12.026,-5.822 -9.676,-3.526C-7.326,-1.23 -4.018,-0.082 0.246,-0.082C3.308,-0.082 5.794,-0.71 7.708,-1.968C9.621,-3.225 11.262,-5.029 12.628,-7.38L20.91,-2.788Z" style="fill:rgb(35,31,32);fill-rule:nonzero;"/>
        </g>
        <g transform="matrix(1,0,0,1,472.806,77.8272)">
            <path d="M0,29.602L7.217,22.796C9.074,25.311 11.234,27.211 13.694,28.495C16.154,29.78 19.078,30.422 22.469,30.422C25.693,30.422 28.03,29.766 29.479,28.454C30.927,27.142 31.652,25.666 31.652,24.026C31.652,22.824 31.242,21.881 30.422,21.197C29.603,20.514 28.481,19.955 27.061,19.516C25.638,19.079 23.985,18.71 22.1,18.409C20.213,18.109 18.231,17.794 16.154,17.466C11.999,16.81 8.556,15.621 5.822,13.899C3.088,12.177 1.723,9.266 1.723,5.166C1.723,1.176 3.334,-2.214 6.561,-5.002C9.785,-7.79 14.24,-9.184 19.927,-9.184C24.572,-9.184 28.618,-8.432 32.063,-6.929C35.506,-5.425 38.594,-3.034 41.328,0.246L33.702,6.724C31.952,4.21 29.916,2.324 27.594,1.066C25.27,-0.19 22.522,-0.82 19.353,-0.82C16.182,-0.82 13.899,-0.205 12.505,1.025C11.111,2.255 10.414,3.664 10.414,5.248C10.414,7.327 11.63,8.733 14.063,9.471C16.495,10.209 19.652,10.852 23.534,11.398C25.775,11.726 27.921,12.136 29.972,12.628C32.021,13.12 33.825,13.831 35.384,14.76C36.941,15.69 38.185,16.892 39.114,18.368C40.043,19.844 40.509,21.73 40.509,24.026C40.509,28.236 38.881,31.748 35.629,34.563C32.376,37.379 27.907,38.786 22.223,38.786C17.028,38.786 12.587,37.952 8.897,36.285C5.207,34.618 2.241,32.39 0,29.602" style="fill:rgb(35,31,32);fill-rule:nonzero;"/>
        </g>
        <g transform="matrix(1,0,0,1,256.575,200.051)">
            <path d="M0,-60.681L9.922,-60.681L9.922,-25.83C9.922,-21.511 9.334,-17.726 8.159,-14.474C6.983,-11.221 5.33,-8.529 3.198,-6.397C1.066,-4.265 -1.517,-2.665 -4.551,-1.6C-7.585,-0.534 -10.934,0 -14.596,0C-22.359,0 -28.345,-2.092 -32.554,-6.274C-36.764,-10.455 -38.868,-16.975 -38.868,-25.83L-38.868,-60.681L-28.864,-60.681L-28.864,-26.569C-28.864,-20.882 -27.703,-16.577 -25.379,-13.654C-23.056,-10.729 -19.462,-9.267 -14.596,-9.267C-9.458,-9.267 -5.74,-10.729 -3.444,-13.654C-1.148,-16.577 0,-20.882 0,-26.569L0,-60.681Z" style="fill:rgb(35,31,32);fill-rule:nonzero;"/>
        </g>
        <g transform="matrix(1,0,0,1,278.469,152.408)">
            <path d="M0,46.822L0,0.902L9.922,0.902L9.922,11.808C11.452,7.872 13.612,4.92 16.4,2.952C19.188,0.984 22.468,0 26.24,0C31.542,0 35.67,1.736 38.622,5.207C41.574,8.679 43.05,13.202 43.05,18.778L43.05,46.822L33.046,46.822L33.046,21.32C33.046,17.384 32.212,14.227 30.545,11.849C28.877,9.471 26.021,8.282 21.976,8.282C18.313,8.282 15.388,9.676 13.202,12.464C11.015,15.252 9.922,19.161 9.922,24.19L9.922,46.822L0,46.822Z" style="fill:rgb(35,31,32);fill-rule:nonzero;"/>
        </g>
        <g transform="matrix(1,0,0,1,0,81.029)">
            <path d="M343.496,118.201L333.492,118.201L333.492,72.281L343.496,72.281L343.496,118.201ZM332.261,58.915C332.261,57.002 332.822,55.429 333.943,54.2C335.062,52.969 336.661,52.355 338.74,52.355C340.761,52.355 342.347,52.969 343.496,54.2C344.643,55.429 345.218,57.002 345.218,58.915C345.218,60.774 344.643,62.305 343.496,63.507C342.347,64.71 340.761,65.311 338.74,65.311C336.661,65.311 335.062,64.71 333.943,63.507C332.822,62.305 332.261,60.774 332.261,58.915" style="fill:rgb(35,31,32);fill-rule:nonzero;"/>
        </g>
        <g transform="matrix(1,0,0,1,379.656,153.31)">
            <path d="M0,45.92L-10.413,45.92L-28.945,0L-18.613,0L-7.216,30.012L-5.002,36.982L-2.787,30.012L9.021,0L19.024,0L0,45.92Z" style="fill:rgb(35,31,32);fill-rule:nonzero;"/>
        </g>
        <g transform="matrix(1,0,0,1,425.413,191.85)">
            <path d="M0,-31.242C-3.882,-31.242 -6.998,-30.162 -9.348,-28.003C-11.698,-25.843 -13.147,-22.878 -13.693,-19.106L12.301,-19.106C12.081,-22.603 11.001,-25.502 9.062,-27.798C7.12,-30.094 4.101,-31.242 0,-31.242M20.91,-2.788C18.996,0.328 16.372,2.94 13.038,5.043C9.703,7.149 5.494,8.2 0.41,8.2C-3.525,8.2 -6.998,7.598 -10.004,6.396C-13.011,5.195 -15.498,3.554 -17.466,1.476C-19.434,-0.6 -20.924,-3.088 -21.935,-5.986C-22.947,-8.883 -23.451,-11.999 -23.451,-15.334C-23.451,-18.558 -22.906,-21.648 -21.812,-24.6C-20.719,-27.552 -19.175,-30.121 -17.179,-32.308C-15.184,-34.494 -12.724,-36.23 -9.799,-37.514C-6.875,-38.799 -3.581,-39.442 0.082,-39.442C3.799,-39.442 7.038,-38.813 9.8,-37.555C12.56,-36.298 14.843,-34.631 16.646,-32.554C18.45,-30.475 19.804,-28.03 20.705,-25.215C21.607,-22.399 22.059,-19.434 22.059,-16.318L22.059,-12.874L-13.775,-12.874C-13.394,-8.938 -12.026,-5.822 -9.676,-3.526C-7.326,-1.23 -4.018,-0.082 0.246,-0.082C3.308,-0.082 5.794,-0.71 7.708,-1.968C9.621,-3.224 11.262,-5.029 12.628,-7.38L20.91,-2.788Z" style="fill:rgb(35,31,32);fill-rule:nonzero;"/>
        </g>
        <g transform="matrix(1,0,0,1,479.615,199.23)">
            <path d="M0,-46.576C1.693,-46.576 3.184,-46.412 4.469,-46.084C5.753,-45.756 6.915,-45.317 7.954,-44.772L5.166,-35.67C4.071,-36.38 2.883,-36.9 1.599,-37.227C0.313,-37.555 -1.095,-37.72 -2.624,-37.72C-5.468,-37.72 -7.859,-36.516 -9.799,-34.112C-11.74,-31.706 -12.71,-28.097 -12.71,-23.288L-12.71,0L-22.632,0L-22.632,-45.92L-12.71,-45.92L-12.71,-34.849C-11.673,-38.84 -10.127,-41.792 -8.077,-43.706C-6.027,-45.619 -3.335,-46.576 0,-46.576" style="fill:rgb(35,31,32);fill-rule:nonzero;"/>
        </g>
        <g transform="matrix(1,0,0,1,490.601,161.429)">
            <path d="M0,29.601L7.217,22.795C9.074,25.31 11.234,27.21 13.694,28.495C16.154,29.78 19.078,30.421 22.469,30.421C25.693,30.421 28.03,29.765 29.479,28.454C30.927,27.141 31.652,25.665 31.652,24.025C31.652,22.824 31.242,21.88 30.422,21.196C29.603,20.513 28.481,19.954 27.061,19.515C25.638,19.079 23.985,18.709 22.1,18.409C20.213,18.109 18.231,17.793 16.154,17.465C11.999,16.809 8.556,15.621 5.822,13.898C3.088,12.176 1.723,9.265 1.723,5.165C1.723,1.175 3.334,-2.214 6.561,-5.003C9.785,-7.791 14.24,-9.185 19.927,-9.185C24.572,-9.185 28.618,-8.433 32.063,-6.93C35.506,-5.425 38.594,-3.035 41.328,0.246L33.702,6.723C31.952,4.209 29.916,2.324 27.594,1.065C25.27,-0.192 22.522,-0.821 19.353,-0.821C16.182,-0.821 13.899,-0.206 12.505,1.024C11.111,2.254 10.414,3.663 10.414,5.247C10.414,7.326 11.63,8.732 14.063,9.47C16.495,10.208 19.652,10.851 23.534,11.397C25.775,11.725 27.921,12.135 29.972,12.627C32.021,13.12 33.825,13.83 35.384,14.759C36.941,15.69 38.185,16.891 39.114,18.368C40.043,19.843 40.509,21.729 40.509,24.025C40.509,28.236 38.881,31.747 35.629,34.562C32.376,37.378 27.907,38.786 22.223,38.786C17.028,38.786 12.587,37.952 8.897,36.285C5.207,34.618 2.241,32.389 0,29.601" style="fill:rgb(35,31,32);fill-rule:nonzero;"/>
        </g>
        <g transform="matrix(1,0,0,1,0,81.029)">
            <path d="M551.036,118.201L541.032,118.201L541.032,72.281L551.036,72.281L551.036,118.201ZM539.802,58.915C539.802,57.002 540.361,55.429 541.482,54.2C542.602,52.969 544.201,52.355 546.28,52.355C548.302,52.355 549.887,52.969 551.036,54.2C552.183,55.429 552.758,57.002 552.758,58.915C552.758,60.774 552.183,62.305 551.036,63.507C549.887,64.71 548.302,65.311 546.28,65.311C544.201,65.311 542.602,64.71 541.482,63.507C540.361,62.305 539.802,60.774 539.802,58.915" style="fill:rgb(35,31,32);fill-rule:nonzero;"/>
        </g>
        <g transform="matrix(1,0,0,1,592.445,145.848)">
            <path d="M0,44.362L0,52.397C-1.203,52.945 -2.475,53.382 -3.813,53.71C-5.153,54.038 -6.671,54.202 -8.364,54.202C-13.284,54.202 -16.839,52.904 -19.024,50.306C-21.212,47.711 -22.305,43.87 -22.305,38.786L-22.305,15.662L-32.801,15.662L-32.801,7.462L-22.223,7.462L-22.223,-4.265L-12.956,-9.84L-12.956,7.462L0,7.462L0,15.662L-12.956,15.662L-12.956,37.637C-12.956,40.59 -12.369,42.668 -11.193,43.87C-10.019,45.073 -8.311,45.674 -6.068,45.674C-4.866,45.674 -3.813,45.564 -2.911,45.345C-2.01,45.128 -1.039,44.799 0,44.362" style="fill:rgb(35,31,32);fill-rule:nonzero;"/>
        </g>
        <g transform="matrix(1,0,0,1,619.751,181.518)">
            <path d="M0,-32.472L-3.772,-36.162L9.758,-51.004L14.678,-46.412L0,-32.472ZM1.312,-20.91C-2.57,-20.91 -5.687,-19.83 -8.036,-17.671C-10.387,-15.511 -11.836,-12.546 -12.382,-8.775L13.612,-8.775C13.393,-12.272 12.313,-15.17 10.373,-17.466C8.432,-19.762 5.412,-20.91 1.312,-20.91M22.222,7.544C20.308,10.66 17.684,13.271 14.35,15.375C11.015,17.48 6.806,18.532 1.722,18.532C-2.214,18.532 -5.687,17.929 -8.692,16.727C-11.699,15.526 -14.187,13.885 -16.154,11.807C-18.122,9.731 -19.612,7.244 -20.623,4.345C-21.636,1.449 -22.14,-1.667 -22.14,-5.002C-22.14,-8.227 -21.595,-11.317 -20.5,-14.269C-19.407,-17.22 -17.863,-19.789 -15.867,-21.977C-13.872,-24.162 -11.412,-25.899 -8.487,-27.183C-5.563,-28.467 -2.27,-29.111 1.394,-29.111C5.11,-29.111 8.35,-28.482 11.111,-27.224C13.871,-25.966 16.154,-24.299 17.958,-22.222C19.762,-20.144 21.115,-17.699 22.017,-14.883C22.919,-12.068 23.37,-9.103 23.37,-5.987L23.37,-2.542L-12.464,-2.542C-12.082,1.393 -10.715,4.509 -8.364,6.805C-6.015,9.101 -2.706,10.25 1.558,10.25C4.619,10.25 7.105,9.622 9.02,8.364C10.933,7.107 12.573,5.302 13.939,2.952L22.222,7.544Z" style="fill:rgb(35,31,32);fill-rule:nonzero;"/>
        </g>
        <g transform="matrix(1,0,0,1,144.389,198.463)">
            <path d="M0,-54.462L0,-59.14L29.384,-59.14L29.384,-54.462C29.384,-21.311 3.516,4.682 -29.76,4.682C-62.911,4.682 -88.779,-21.311 -88.779,-54.462L-88.779,-59.14L-59.395,-59.144L-59.395,-54.462C-59.395,-36.38 -46.838,-23.32 -29.76,-23.32C-12.557,-23.32 0,-36.38 0,-54.462" style="fill:rgb(35,31,32);fill-rule:nonzero;"/>
        </g>
        <g transform="matrix(1,0,0,1,173.773,55.6677)">
            <path d="M0,60.022L0,0L-27.626,0L-27.626,40.811L-48.155,0L-78.859,0L-47.83,60.022L0,60.022Z" style="fill:rgb(35,31,32);fill-rule:nonzero;"/>
        </g>
        <g transform="matrix(-1,0,0,1,139.976,-80.227)">
            <rect x="55.61" y="135.895" width="28.756" height="60.022" style="fill:rgb(35,31,32);"/>
        </g>
    </g>
</svg>
